<?xml version="1.0" encoding="utf-8"?>
<!-- Generator: Adobe Illustrator 27.8.0, SVG Export Plug-In . SVG Version: 6.00 Build 0)  -->
<svg version="1.1" id="Ebene_1" xmlns="http://www.w3.org/2000/svg" xmlns:xlink="http://www.w3.org/1999/xlink" x="0px" y="0px"
	 viewBox="0 0 850.4 105.9" style="enable-background:new 0 0 850.4 105.9;" xml:space="preserve">
<style type="text/css">
	.st0{fill-rule:evenodd;clip-rule:evenodd;fill:#0F1923;}
</style>
<g>
	<path class="st0" d="M79.7,0c-7.2,0-13.1,5.1-14.4,11.8H36.1C34.8,5.1,28.9,0,21.7,0h-7.1C6.6,0,0,6.5,0,14.5
		C0,22.5,6.6,29,14.7,29h7.1c7.2,0,13.1-5.1,14.4-11.8h29.2C66.6,23.9,72.5,29,79.7,29h7.1c8.1,0,14.7-6.5,14.7-14.5
		c0-8-6.6-14.5-14.7-14.5H79.7z M70.5,14.5c0-5,4.1-9.1,9.2-9.1h7.1c5.1,0,9.2,4.1,9.2,9.1c0,5-4.1,9.1-9.2,9.1h-7.1
		C74.6,23.6,70.5,19.5,70.5,14.5z M5.5,14.5c0-5,4.1-9.1,9.2-9.1h7.1c5.1,0,9.2,4.1,9.2,9.1c0,5-4.1,9.1-9.2,9.1h-7.1
		C9.6,23.6,5.5,19.5,5.5,14.5z M112.2,29c-7.2,0-13.1,5.1-14.4,11.8H68.6C67.3,34.1,61.4,29,54.2,29h-7.1c-8.1,0-14.7,6.5-14.7,14.5
		c0,8,6.6,14.5,14.7,14.5h7.1c7.2,0,13.1-5.1,14.4-11.8h29.2C99.1,52.9,105,58,112.2,58h7.1c8.1,0,14.7-6.5,14.7-14.5
		c0-8-6.6-14.5-14.7-14.5H112.2z M103,43.5c0-5,4.1-9.1,9.2-9.1h7.1c5.1,0,9.2,4.1,9.2,9.1c0,5-4.1,9.1-9.2,9.1h-7.1
		C107.1,52.6,103,48.5,103,43.5z M38,43.5c0-5,4.1-9.1,9.2-9.1h7.1c5.1,0,9.2,4.1,9.2,9.1c0,5-4.1,9.1-9.2,9.1h-7.1
		C42.1,52.6,38,48.5,38,43.5z M79.7,58c-7.2,0-13.1,5.1-14.4,11.8H36.1C34.8,63.1,28.9,58,21.7,58h-7.1C6.6,58,0,64.5,0,72.5
		C0,80.6,6.6,87,14.7,87h7.1c7.2,0,13.1-5.1,14.4-11.8h29.2C66.6,82,72.5,87,79.7,87h7.1c8.1,0,14.7-6.5,14.7-14.5
		c0-8-6.6-14.5-14.7-14.5H79.7z M70.5,72.5c0-5,4.1-9.1,9.2-9.1h7.1c5.1,0,9.2,4.1,9.2,9.1c0,5-4.1,9.1-9.2,9.1h-7.1
		C74.6,81.6,70.5,77.6,70.5,72.5z M5.5,72.5c0-5,4.1-9.1,9.2-9.1h7.1c5.1,0,9.2,4.1,9.2,9.1c0,5-4.1,9.1-9.2,9.1h-7.1
		C9.6,81.6,5.5,77.6,5.5,72.5z"/>
	<path class="st0" d="M196.6,87h-15.8V0h15.6c20,0,24.6,9.9,24.6,28.4v29.8C221,76.6,216.7,87,196.6,87z M213.5,24.9
		c0-12.1-4.1-18.5-16.9-18.5h-8.4v74.3h9.5c13.3,0,15.7-8.6,15.7-20.2V24.9z"/>
	<path class="st0" d="M247.8,87h6.7V0h-6.7V87z"/>
	<path class="st0" d="M314.6,85.8l-0.1-5.3c-4.3,4.4-9.7,6.6-15.9,6.6c-13.9,0-17.3-10.9-17.3-22.9V20.6c0-13.8,7.2-20.6,20.8-20.6
		c11.8,0,19,6.1,19,18.2v8.4h-7.2v-4.2c0.1-9.3-1.3-15.8-12.3-15.8c-11.1,0-13,6.5-13,16.3v40.3c0,8.6,1,17.5,11.8,17.5
		c5.4,0,10.1-3.2,13.8-6.9v-23h-13.4v-6h20.7v40.9H314.6z"/>
	<path class="st0" d="M354.9,87h6.7V0h-6.7V87z"/>
	<path class="st0" d="M405.3,6.4V87H398V6.4h-16.3V0h40.2v6.4H405.3z"/>
	<path class="st0" d="M481,87l-5.2-25.7h-21.6L449.5,87h-7.5l17.2-87h11.2l18.4,87H481z M464.4,5.1l-8.7,49.9h18.5L464.4,5.1z"/>
	<path class="st0" d="M508.9,87V0h7.5v80.7h26V87H508.9z"/>
	<path class="st0" d="M615.6,87h-9.8c-4.5-26.2-9.1-52.5-12.7-78.8c-3,26.5-7.9,52.6-12.4,78.8h-9.5L555.8,0h7.5
		c4.6,26,9,52.1,12.8,78.2c3.3-26.2,8-52.2,12.3-78.2h10.5c4.2,26.1,8.6,52.1,12.5,78.2c0.7-8.3,1.3-16.8,2.6-25.2l8-53h7.4
		L615.6,87z"/>
	<path class="st0" d="M656.2,87V0h32.2v6.4h-25.1v32.1h21.9v6.4h-21.9v35.8h26.3V87H656.2z"/>
	<path class="st0" d="M749,87l-15.2-41.2c-3.4,0.4-6.8,0.5-10.3,0.5V87h-7V0h15.4c13.9,0,21.8,6.4,21.8,22.2
		c0,10.2-3.6,18.5-13,21.8l16,43.1H749z M729.5,6.3h-6.1v33.4c12-0.3,23.1-0.4,23.1-17.1C746.6,9.7,740.5,6.3,729.5,6.3z"/>
	<path class="st0" d="M800.4,6.4V87h-7.3V6.4h-16.3V0h40.2v6.4H800.4z"/>
	<path class="st0" d="M837,33.5c-9.4,0-13.4-7.4-13.4-16.8C823.6,7.3,827.7,0,837,0c9.4,0,13.4,7.3,13.4,16.7
		C850.4,26.1,846.4,33.5,837,33.5z M837,2.9c-7.9,0-10.7,6-10.7,13.8c0,7.8,2.7,13.9,10.7,13.9c7.8,0,10.6-6.3,10.6-13.9
		C847.6,9.1,844.8,2.9,837,2.9z M840.4,26.3l-3.6-8.8h-1.8v8.8h-2.4V6.7h4c3,0,5.5,1.8,5.5,5.3c0,2.2-0.9,4-2.8,4.9l3.8,9.5H840.4z
		 M835.9,8.9h-0.8v6.3h0.8c2.2,0,3.8-0.4,3.8-3.2C839.7,9.4,838,8.9,835.9,8.9z"/>
	<path class="st0" d="M569.2,105.9h227.7v-4.2H569.2V105.9z"/>
</g>
</svg>
